<svg xmlns="http://www.w3.org/2000/svg" viewBox="0 0 240 240" width="240" height="240" fill="none" role="img" aria-label="Persian Blues Sessions">
  <!-- rings -->
  <circle cx="120" cy="120" r="110" stroke="#d4af53" stroke-width="2"/>
  <circle cx="120" cy="120" r="101" stroke="#d4af53" stroke-width="1" opacity="0.55"/>
  <!-- corner girih eight-point stars -->
  <g stroke="#d4af53" stroke-width="4" stroke-linejoin="round" opacity="0.85">
    <g transform="translate(182,58) scale(0.11) translate(-50,-50)"><path d="M96 50 L50 96 L4 50 L50 4 Z"/><path d="M82.5 17.5 L82.5 82.5 L17.5 82.5 L17.5 17.5 Z"/></g>
    <g transform="translate(58,58) scale(0.11) translate(-50,-50)"><path d="M96 50 L50 96 L4 50 L50 4 Z"/><path d="M82.5 17.5 L82.5 82.5 L17.5 82.5 L17.5 17.5 Z"/></g>
    <g transform="translate(182,182) scale(0.11) translate(-50,-50)"><path d="M96 50 L50 96 L4 50 L50 4 Z"/><path d="M82.5 17.5 L82.5 82.5 L17.5 82.5 L17.5 17.5 Z"/></g>
    <g transform="translate(58,182) scale(0.11) translate(-50,-50)"><path d="M96 50 L50 96 L4 50 L50 4 Z"/><path d="M82.5 17.5 L82.5 82.5 L17.5 82.5 L17.5 17.5 Z"/></g>
  </g>
  <!-- tar (long-necked lute), gold, with a blues note at the soundhole -->
  <g transform="translate(95,40) scale(0.5)">
    <g fill="#d4af53">
      <rect x="42" y="6" width="16" height="32" rx="4"/>
      <rect x="28" y="12" width="16" height="4" rx="2"/><rect x="56" y="12" width="16" height="4" rx="2"/>
      <rect x="28" y="22" width="16" height="4" rx="2"/><rect x="56" y="22" width="16" height="4" rx="2"/>
      <rect x="45" y="38" width="10" height="150" rx="2"/>
      <path d="M50 184 C 40 184 34 188 30 196 C 24 206 22 218 26 228 C 29 235 34 238 38 241 C 30 246 18 255 15 270 C 12 289 27 315 50 315 C 73 315 88 289 85 270 C 82 255 70 246 62 241 C 66 238 71 235 74 228 C 78 218 76 206 70 196 C 66 188 60 184 50 184 Z"/>
      <rect x="42" y="292" width="16" height="3" rx="1.5"/>
    </g>
    <circle cx="50" cy="272" r="11" fill="#0e1c46"/>
    <circle cx="50" cy="272" r="11" fill="none" stroke="#4fb8dd" stroke-width="2.5"/>
  </g>
</svg>
